<svg width="675" height="542" viewBox="0 0 675 542" fill="none" xmlns="http://www.w3.org/2000/svg">
<circle cx="286.5" cy="268.5" r="268" fill="#60ADED" fill-opacity="0.05" stroke="url(#paint0_linear_459_1272)" stroke-linejoin="round" stroke-dasharray="3 3"/>
<circle cx="286.298" cy="268.298" r="231.798" fill="#60ADED" fill-opacity="0.08" stroke="url(#paint1_linear_459_1272)" stroke-linejoin="round" stroke-dasharray="3 3"/>
<path opacity="0.8" d="M484.95 263.994C484.972 264.993 484.987 265.993 484.994 266.995L484.494 266.999C484.498 267.499 484.5 267.999 484.5 268.5C484.5 269.001 484.498 269.501 484.494 270.001L484.994 270.005C484.987 271.007 484.972 272.008 484.95 273.006L484.45 272.995C484.428 273.991 484.398 274.986 484.362 275.978L484.861 275.997C484.825 276.992 484.78 277.986 484.729 278.979L484.23 278.953C484.178 279.952 484.118 280.949 484.052 281.945L484.551 281.978C484.484 282.976 484.41 283.971 484.329 284.965L483.83 284.924C483.749 285.916 483.661 286.905 483.565 287.892L484.063 287.94C483.966 288.936 483.862 289.93 483.751 290.922L483.254 290.866C483.143 291.859 483.024 292.848 482.898 293.836L483.394 293.899C483.268 294.889 483.135 295.877 482.994 296.863L482.499 296.792C482.358 297.778 482.21 298.762 482.055 299.743L482.549 299.821C482.393 300.81 482.229 301.797 482.058 302.781L481.566 302.696C481.395 303.677 481.217 304.657 481.033 305.633L481.524 305.726C481.338 306.706 481.146 307.683 480.946 308.657L480.456 308.557C480.256 309.536 480.048 310.512 479.833 311.485L480.321 311.593C480.106 312.569 479.883 313.542 479.653 314.513L479.167 314.398C478.938 315.366 478.701 316.331 478.458 317.294L478.943 317.416C478.698 318.386 478.445 319.353 478.186 320.317L477.703 320.187C477.444 321.15 477.178 322.11 476.905 323.068L477.386 323.205C477.112 324.164 476.831 325.121 476.543 326.075L476.064 325.93C475.776 326.884 475.481 327.835 475.18 328.783L475.656 328.935C475.353 329.888 475.042 330.837 474.725 331.784L474.251 331.625C473.934 332.569 473.611 333.51 473.28 334.448L473.752 334.614C473.42 335.556 473.082 336.494 472.737 337.429L472.267 337.255C471.922 338.191 471.569 339.124 471.21 340.053L471.676 340.233C471.316 341.165 470.949 342.093 470.575 343.018L470.112 342.83C469.739 343.752 469.359 344.671 468.973 345.587L469.433 345.781C469.045 346.703 468.649 347.621 468.247 348.535L467.789 348.334C467.388 349.246 466.98 350.154 466.565 351.059L467.02 351.267C466.604 352.174 466.182 353.078 465.753 353.977L465.302 353.762C464.873 354.662 464.437 355.558 463.995 356.45L464.443 356.672C464 357.568 463.55 358.459 463.093 359.347L462.649 359.118C462.193 360.003 461.732 360.885 461.263 361.762L461.704 361.997C461.234 362.879 460.758 363.756 460.275 364.629L459.837 364.387C459.355 365.259 458.866 366.127 458.371 366.991L458.805 367.24C458.308 368.106 457.806 368.968 457.297 369.825L456.867 369.57C456.359 370.427 455.844 371.279 455.324 372.127L455.75 372.389C455.227 373.24 454.698 374.087 454.163 374.93L453.741 374.662C453.207 375.503 452.667 376.339 452.121 377.172L452.54 377.446C451.992 378.28 451.438 379.11 450.879 379.936L450.465 379.655C449.906 380.48 449.34 381.301 448.769 382.117L449.179 382.403C448.606 383.221 448.028 384.035 447.443 384.843L447.038 384.551C446.455 385.357 445.866 386.159 445.271 386.957L445.672 387.256C445.074 388.057 444.471 388.853 443.862 389.644L443.466 389.339C442.859 390.128 442.246 390.913 441.627 391.693L442.018 392.003C441.398 392.785 440.772 393.562 440.14 394.334L439.753 394.018C439.122 394.788 438.485 395.554 437.843 396.315L438.225 396.638C437.581 397.401 436.932 398.159 436.276 398.912L435.899 398.584C435.246 399.335 434.587 400.081 433.922 400.822L434.294 401.156C433.628 401.899 432.956 402.637 432.278 403.371L431.911 403.031C431.235 403.763 430.554 404.489 429.867 405.21L430.229 405.555C429.541 406.278 428.847 406.995 428.148 407.708L427.791 407.357C427.094 408.068 426.391 408.773 425.683 409.473L426.035 409.829C425.325 410.531 424.61 411.227 423.889 411.919L423.543 411.558C422.825 412.247 422.101 412.931 421.372 413.61L421.713 413.976C420.983 414.656 420.247 415.331 419.506 416L419.171 415.629C418.432 416.296 417.689 416.958 416.94 417.614L417.269 417.99C416.519 418.648 415.763 419.301 415.003 419.948L414.679 419.567C413.92 420.212 413.157 420.851 412.388 421.485L412.706 421.87C411.937 422.505 411.162 423.135 410.382 423.758L410.07 423.367C409.293 423.989 408.51 424.605 407.723 425.216L408.03 425.611C407.241 426.222 406.447 426.828 405.649 427.428L405.348 427.029C404.553 427.627 403.753 428.219 402.948 428.805L403.242 429.209C402.435 429.796 401.624 430.378 400.808 430.953L400.52 430.545C399.706 431.119 398.888 431.687 398.065 432.249L398.347 432.662C397.523 433.224 396.695 433.781 395.863 434.331L395.587 433.914C394.757 434.463 393.922 435.006 393.083 435.542L393.353 435.964C392.512 436.502 391.666 437.033 390.817 437.559L390.554 437.133C389.707 437.657 388.857 438.174 388.002 438.685L388.258 439.114C387.402 439.626 386.542 440.132 385.678 440.631L385.427 440.198C384.565 440.696 383.699 441.187 382.829 441.672L383.072 442.109C382.2 442.595 381.324 443.074 380.445 443.547L380.208 443.107C379.332 443.578 378.452 444.043 377.568 444.501L377.798 444.945C376.912 445.404 376.022 445.856 375.128 446.303L374.905 445.855C374.014 446.3 373.119 446.738 372.22 447.17L372.437 447.62C371.538 448.052 370.636 448.477 369.731 448.895L369.521 448.441C368.617 448.858 367.71 449.269 366.799 449.673L367.002 450.13C366.089 450.534 365.172 450.933 364.252 451.324L364.056 450.864C363.142 451.253 362.224 451.635 361.302 452.01L361.491 452.473C360.567 452.849 359.64 453.219 358.709 453.582L358.528 453.116C357.6 453.477 356.668 453.832 355.733 454.18L355.908 454.649C354.974 454.996 354.036 455.337 353.096 455.671L352.928 455.2C351.991 455.532 351.051 455.858 350.108 456.177L350.268 456.651C349.322 456.97 348.373 457.283 347.421 457.588L347.268 457.112C346.321 457.416 345.37 457.713 344.417 458.003L344.562 458.481C343.609 458.771 342.653 459.054 341.694 459.33L341.556 458.849C340.599 459.124 339.64 459.392 338.677 459.653L338.808 460.136C337.844 460.397 336.878 460.651 335.908 460.898L335.785 460.414C334.823 460.659 333.858 460.897 332.89 461.127L333.006 461.614C332.036 461.845 331.063 462.069 330.088 462.286L329.979 461.798C329.006 462.015 328.03 462.224 327.052 462.426L327.153 462.916C326.179 463.117 325.202 463.311 324.223 463.498L324.129 463.007C323.153 463.193 322.174 463.372 321.192 463.544L321.278 464.036C320.295 464.208 319.308 464.373 318.319 464.531L318.241 464.037C317.259 464.193 316.276 464.342 315.29 464.484L315.361 464.979C314.375 465.121 313.388 465.255 312.398 465.382L312.334 464.886C311.347 465.013 310.357 465.132 309.365 465.245L309.421 465.741C308.429 465.853 307.435 465.958 306.439 466.055L306.39 465.558C305.404 465.654 304.415 465.743 303.423 465.825L303.465 466.323C302.471 466.405 301.475 466.48 300.478 466.547L300.444 466.049C299.449 466.116 298.451 466.175 297.452 466.227L297.478 466.727C296.486 466.779 295.492 466.823 294.496 466.86L294.478 466.361C293.485 466.398 292.491 466.427 291.495 466.45L291.506 466.95C290.507 466.972 289.507 466.987 288.505 466.994L288.501 466.494C288.001 466.498 287.501 466.5 287 466.5C286.499 466.5 285.999 466.498 285.499 466.494L285.495 466.994C284.493 466.987 283.493 466.972 282.494 466.95L282.505 466.45C281.509 466.427 280.515 466.398 279.522 466.361L279.504 466.86C278.508 466.823 277.514 466.779 276.521 466.727L276.548 466.227C275.548 466.175 274.551 466.116 273.556 466.048L273.522 466.547C272.525 466.48 271.529 466.405 270.535 466.323L270.576 465.825C269.585 465.743 268.596 465.654 267.609 465.558L267.561 466.055C266.564 465.958 265.57 465.853 264.578 465.741L264.635 465.245C263.643 465.132 262.653 465.013 261.666 464.886L261.602 465.382C260.612 465.255 259.624 465.121 258.639 464.979L258.71 464.484C257.724 464.342 256.74 464.193 255.759 464.037L255.68 464.531C254.692 464.373 253.705 464.208 252.721 464.036L252.808 463.544C251.826 463.372 250.847 463.193 249.871 463.007L249.777 463.498C248.798 463.311 247.821 463.117 246.847 462.916L246.948 462.426C245.969 462.224 244.994 462.015 244.021 461.798L243.912 462.286C242.936 462.069 241.964 461.845 240.993 461.614L241.11 461.127C240.142 460.897 239.177 460.659 238.215 460.414L238.092 460.898C237.122 460.651 236.156 460.397 235.192 460.136L235.323 459.653C234.36 459.392 233.401 459.124 232.444 458.849L232.306 459.33C231.347 459.054 230.391 458.771 229.438 458.481L229.583 458.003C228.63 457.713 227.679 457.416 226.732 457.112L226.579 457.588C225.627 457.283 224.678 456.97 223.732 456.65L223.892 456.177C222.949 455.858 222.009 455.532 221.072 455.2L220.904 455.671C219.964 455.337 219.026 454.996 218.092 454.649L218.266 454.18C217.332 453.832 216.4 453.477 215.472 453.116L215.29 453.581C214.36 453.219 213.433 452.849 212.509 452.473L212.698 452.01C211.776 451.635 210.858 451.253 209.944 450.864L209.748 451.324C208.828 450.933 207.911 450.534 206.998 450.13L207.201 449.672C206.29 449.269 205.383 448.858 204.479 448.441L204.269 448.895C203.364 448.477 202.461 448.052 201.563 447.62L201.78 447.17C200.881 446.738 199.986 446.3 199.095 445.855L198.872 446.303C197.978 445.856 197.088 445.404 196.202 444.945L196.432 444.501C195.548 444.043 194.668 443.578 193.792 443.107L193.555 443.547C192.676 443.074 191.8 442.595 190.928 442.109L191.171 441.672C190.301 441.187 189.435 440.696 188.572 440.198L188.322 440.631C187.458 440.132 186.598 439.626 185.742 439.114L185.998 438.685C185.143 438.174 184.293 437.657 183.446 437.133L183.183 437.559C182.334 437.033 181.488 436.501 180.647 435.964L180.917 435.542C180.078 435.006 179.243 434.463 178.413 433.914L178.137 434.331C177.305 433.781 176.476 433.224 175.653 432.662L175.935 432.249C175.112 431.687 174.294 431.119 173.48 430.545L173.192 430.953C172.376 430.378 171.565 429.796 170.758 429.209L171.052 428.805C170.247 428.219 169.447 427.627 168.652 427.029L168.351 427.428C167.553 426.828 166.759 426.222 165.97 425.611L166.277 425.216C165.49 424.605 164.707 423.989 163.93 423.367L163.618 423.758C162.838 423.135 162.063 422.505 161.294 421.871L161.612 421.485C160.843 420.851 160.08 420.212 159.321 419.567L158.997 419.948C158.237 419.301 157.481 418.648 156.731 417.99L157.06 417.614C156.311 416.958 155.568 416.296 154.829 415.629L154.494 416C153.753 415.331 153.017 414.656 152.287 413.976L152.628 413.61C151.899 412.931 151.175 412.247 150.457 411.558L150.11 411.919C149.39 411.227 148.675 410.531 147.965 409.829L148.317 409.473C147.609 408.773 146.906 408.068 146.209 407.357L145.852 407.708C145.153 406.995 144.459 406.278 143.771 405.555L144.133 405.21C143.446 404.489 142.765 403.763 142.089 403.031L141.722 403.371C141.044 402.637 140.372 401.899 139.706 401.156L140.078 400.822C139.413 400.081 138.754 399.335 138.101 398.584L137.724 398.912C137.068 398.159 136.419 397.401 135.775 396.638L136.157 396.315C135.515 395.554 134.878 394.788 134.247 394.018L133.86 394.334C133.229 393.562 132.602 392.785 131.982 392.003L132.373 391.693C131.754 390.913 131.141 390.128 130.534 389.339L130.138 389.644C129.529 388.853 128.926 388.057 128.328 387.256L128.729 386.957C128.134 386.159 127.545 385.357 126.962 384.551L126.557 384.843C125.972 384.035 125.394 383.221 124.821 382.403L125.231 382.117C124.66 381.301 124.094 380.48 123.535 379.655L123.121 379.936C122.562 379.11 122.008 378.28 121.46 377.446L121.878 377.172C121.333 376.339 120.793 375.503 120.259 374.662L119.837 374.93C119.302 374.087 118.773 373.24 118.25 372.389L118.676 372.127C118.156 371.279 117.641 370.427 117.133 369.57L116.703 369.825C116.194 368.968 115.692 368.106 115.195 367.239L115.629 366.991C115.134 366.127 114.645 365.259 114.163 364.387L113.725 364.629C113.242 363.756 112.766 362.879 112.296 361.997L112.737 361.762C112.268 360.884 111.807 360.003 111.351 359.118L110.907 359.346C110.45 358.459 110 357.568 109.557 356.672L110.005 356.45C109.563 355.558 109.127 354.662 108.698 353.762L108.247 353.977C107.818 353.078 107.396 352.174 106.98 351.267L107.435 351.059C107.02 350.154 106.612 349.246 106.211 348.334L105.753 348.535C105.351 347.621 104.955 346.703 104.567 345.781L105.027 345.587C104.641 344.671 104.261 343.752 103.888 342.83L103.425 343.017C103.051 342.093 102.684 341.165 102.324 340.233L102.79 340.053C102.431 339.124 102.078 338.191 101.732 337.255L101.263 337.428C100.918 336.494 100.58 335.556 100.248 334.614L100.72 334.448C100.389 333.51 100.066 332.569 99.7493 331.625L99.2752 331.784C98.9578 330.837 98.6474 329.887 98.3439 328.935L98.8203 328.783C98.5185 327.835 98.2236 326.884 97.9356 325.93L97.457 326.075C97.1691 325.121 96.8883 324.164 96.6144 323.205L97.0952 323.067C96.8221 322.11 96.5559 321.15 96.2968 320.187L95.814 320.317C95.5547 319.353 95.3024 318.386 95.0572 317.416L95.542 317.293C95.2987 316.331 95.0624 315.366 94.8332 314.398L94.3467 314.513C94.1169 313.542 93.8942 312.569 93.6787 311.593L94.167 311.485C93.952 310.512 93.7442 309.535 93.5436 308.557L93.0538 308.657C92.8541 307.683 92.6616 306.706 92.4762 305.726L92.9675 305.633C92.7826 304.656 92.6049 303.677 92.4345 302.695L91.9418 302.781C91.7709 301.797 91.6073 300.81 91.4509 299.821L91.9447 299.743C91.7896 298.762 91.6416 297.778 91.5009 296.792L91.0059 296.862C90.8653 295.877 90.7318 294.889 90.6057 293.899L91.1017 293.836C90.9759 292.848 90.8573 291.858 90.7461 290.866L90.2492 290.922C90.138 289.93 90.034 288.936 89.9374 287.94L90.4351 287.891C90.3394 286.904 90.2509 285.915 90.1697 284.924L89.6714 284.965C89.59 283.971 89.5159 282.975 89.4492 281.978L89.9481 281.944C89.8815 280.949 89.8223 279.952 89.7705 278.952L89.2711 278.978C89.2197 277.986 89.1755 276.992 89.1386 275.996L89.6382 275.978C89.6015 274.985 89.572 273.991 89.5499 272.995L89.05 273.006C89.0278 272.007 89.013 271.007 89.0056 270.005L89.5056 270.001C89.5019 269.501 89.5 269.001 89.5 268.5C89.5 267.999 89.5019 267.499 89.5056 266.999L89.0056 266.995C89.013 265.993 89.0278 264.992 89.05 263.994L89.5499 264.005C89.572 263.009 89.6015 262.014 89.6383 261.022L89.1386 261.003C89.1755 260.008 89.2197 259.014 89.2711 258.021L89.7705 258.047C89.8223 257.048 89.8815 256.051 89.9481 255.055L89.4492 255.022C89.516 254.024 89.59 253.029 89.6714 252.035L90.1698 252.076C90.251 251.084 90.3394 250.095 90.4351 249.108L89.9374 249.06C90.034 248.064 90.138 247.07 90.2492 246.078L90.7461 246.134C90.8573 245.141 90.9759 244.152 91.1017 243.164L90.6057 243.101C90.7319 242.111 90.8653 241.123 91.0059 240.137L91.5009 240.208C91.6416 239.222 91.7896 238.238 91.9448 237.257L91.4509 237.179C91.6073 236.19 91.771 235.203 91.9419 234.219L92.4345 234.304C92.605 233.323 92.7826 232.343 92.9675 231.367L92.4762 231.274C92.6616 230.294 92.8541 229.317 93.0538 228.343L93.5436 228.443C93.7442 227.464 93.9521 226.488 94.167 225.515L93.6788 225.407C93.8943 224.431 94.1169 223.458 94.3467 222.487L94.8332 222.602C95.0624 221.634 95.2987 220.669 95.542 219.706L95.0573 219.584C95.3024 218.614 95.5547 217.647 95.814 216.683L96.2969 216.813C96.556 215.85 96.8221 214.89 97.0953 213.932L96.6145 213.795C96.8883 212.836 97.1692 211.879 97.457 210.925L97.9357 211.07C98.2236 210.116 98.5185 209.165 98.8204 208.217L98.3439 208.065C98.6474 207.112 98.9579 206.163 99.2753 205.216L99.7493 205.375C100.066 204.431 100.389 203.49 100.72 202.552L100.248 202.386C100.58 201.444 100.918 200.506 101.263 199.571L101.733 199.745C102.078 198.809 102.431 197.876 102.79 196.947L102.324 196.767C102.684 195.835 103.051 194.907 103.425 193.982L103.888 194.17C104.261 193.248 104.641 192.329 105.027 191.413L104.567 191.219C104.955 190.297 105.351 189.379 105.753 188.465L106.211 188.666C106.612 187.754 107.02 186.846 107.435 185.941L106.98 185.733C107.396 184.826 107.818 183.922 108.247 183.023L108.698 183.238C109.127 182.338 109.563 181.442 110.005 180.55L109.557 180.328C110 179.432 110.45 178.541 110.907 177.653L111.351 177.882C111.807 176.997 112.268 176.115 112.737 175.238L112.296 175.003C112.766 174.121 113.242 173.244 113.725 172.371L114.163 172.613C114.645 171.741 115.134 170.873 115.629 170.009L115.195 169.76C115.692 168.894 116.194 168.032 116.703 167.175L117.133 167.43C117.641 166.573 118.156 165.721 118.676 164.873L118.25 164.611C118.773 163.76 119.302 162.913 119.837 162.07L120.259 162.338C120.793 161.497 121.333 160.661 121.879 159.828L121.46 159.554C122.008 158.72 122.562 157.89 123.121 157.064L123.535 157.345C124.094 156.52 124.66 155.699 125.231 154.883L124.821 154.597C125.394 153.779 125.972 152.965 126.557 152.157L126.962 152.449C127.545 151.643 128.134 150.841 128.729 150.043L128.328 149.744C128.926 148.943 129.529 148.147 130.138 147.356L130.534 147.661C131.141 146.872 131.754 146.087 132.373 145.307L131.982 144.997C132.602 144.215 133.228 143.438 133.86 142.666L134.247 142.982C134.878 142.212 135.515 141.446 136.157 140.685L135.775 140.362C136.419 139.599 137.068 138.841 137.724 138.088L138.101 138.416C138.754 137.665 139.413 136.919 140.078 136.178L139.706 135.844C140.372 135.101 141.044 134.363 141.722 133.629L142.089 133.969C142.765 133.237 143.446 132.511 144.133 131.79L143.771 131.445C144.459 130.722 145.153 130.005 145.852 129.292L146.209 129.643C146.906 128.932 147.609 128.227 148.317 127.527L147.965 127.171C148.675 126.469 149.39 125.773 150.11 125.081L150.457 125.442C151.175 124.753 151.899 124.069 152.628 123.39L152.287 123.024C153.017 122.344 153.753 121.669 154.494 121L154.829 121.371C155.568 120.704 156.311 120.042 157.06 119.386L156.731 119.01C157.481 118.352 158.237 117.699 158.997 117.052L159.321 117.433C160.08 116.788 160.843 116.149 161.612 115.515L161.294 115.13C162.063 114.495 162.838 113.865 163.618 113.242L163.93 113.633C164.707 113.011 165.49 112.395 166.277 111.784L165.97 111.389C166.759 110.778 167.553 110.172 168.351 109.572L168.652 109.971C169.447 109.373 170.247 108.781 171.052 108.195L170.758 107.791C171.565 107.204 172.376 106.622 173.192 106.047L173.48 106.455C174.294 105.881 175.112 105.313 175.935 104.751L175.653 104.338C176.476 103.776 177.305 103.219 178.137 102.669L178.413 103.086C179.243 102.537 180.078 101.994 180.917 101.458L180.647 101.036C181.488 100.498 182.334 99.9668 183.183 99.4413L183.446 99.8665C184.293 99.343 185.143 98.8257 185.998 98.3147L185.742 97.8856C186.598 97.3738 187.458 96.8683 188.322 96.3692L188.573 96.8022C189.435 96.3043 190.301 95.8128 191.171 95.3276L190.928 94.8909C191.8 94.405 192.676 93.9255 193.555 93.4525L193.792 93.8929C194.668 93.4219 195.548 92.9574 196.432 92.4994L196.202 92.0554C197.088 91.5962 197.978 91.1435 198.872 90.6974L199.095 91.1448C199.986 90.7 200.881 90.2618 201.78 89.8302L201.563 89.3795C202.462 88.948 203.364 88.5232 204.269 88.105L204.479 88.5589C205.383 88.1418 206.29 87.7313 207.201 87.3275L206.998 86.8704C207.911 86.4655 208.828 86.0674 209.748 85.6761L209.944 86.1362C210.858 85.7474 211.776 85.3652 212.698 84.9898L212.509 84.5268C213.433 84.1505 214.36 83.7811 215.291 83.4185L215.472 83.8843C216.4 83.5227 217.332 83.1678 218.267 82.8199L218.092 82.3513C219.026 82.0036 219.964 81.6628 220.904 81.3289L221.072 81.8001C222.009 81.4676 222.949 81.1419 223.892 80.8232L223.732 80.3495C224.678 80.0299 225.627 79.7174 226.579 79.4118L226.732 79.8879C227.679 79.5839 228.63 79.2869 229.583 78.997L229.438 78.5186C230.391 78.2288 231.347 77.9459 232.306 77.6702L232.444 78.1507C233.401 77.8756 234.36 77.6076 235.323 77.3468L235.192 76.8642C236.156 76.6029 237.122 76.3488 238.092 76.1019L238.215 76.5864C239.177 76.3414 240.142 76.1034 241.11 75.8726L240.994 75.3863C241.964 75.1548 242.937 74.9306 243.912 74.7135L244.021 75.2016C244.994 74.9851 245.97 74.7758 246.948 74.5738L246.847 74.0841C247.821 73.8829 248.798 73.6889 249.777 73.5021L249.871 73.9933C250.847 73.8071 251.826 73.6281 252.808 73.4564L252.722 72.9639C253.705 72.7917 254.692 72.6269 255.681 72.4693L255.759 72.9631C256.741 72.8068 257.724 72.6577 258.71 72.5159L258.639 72.021C259.625 71.8793 260.612 71.7449 261.602 71.6178L261.666 72.1138C262.653 71.987 263.643 71.8676 264.635 71.7555L264.579 71.2586C265.571 71.1466 266.565 71.0418 267.561 70.9445L267.61 71.4421C268.596 71.3457 269.585 71.2566 270.577 71.1748L270.535 70.6765C271.529 70.5945 272.525 70.5199 273.522 70.4526L273.556 70.9515C274.551 70.8844 275.549 70.8247 276.548 70.7725L276.522 70.2732C277.514 70.2213 278.508 70.1768 279.504 70.1396L279.522 70.6393C280.515 70.6023 281.509 70.5726 282.505 70.5503L282.494 70.0504C283.493 70.028 284.493 70.0131 285.495 70.0056L285.499 70.5056C285.999 70.5019 286.499 70.5 287 70.5C287.501 70.5 288.001 70.5019 288.501 70.5056L288.505 70.0056C289.507 70.0131 290.507 70.028 291.506 70.0504L291.495 70.5503C292.491 70.5726 293.485 70.6023 294.478 70.6393L294.496 70.1396C295.492 70.1768 296.486 70.2213 297.479 70.2732L297.452 70.7725C298.452 70.8248 299.449 70.8844 300.444 70.9515L300.478 70.4526C301.475 70.5199 302.471 70.5945 303.465 70.6765L303.424 71.1748C304.415 71.2566 305.404 71.3457 306.391 71.4422L306.439 70.9445C307.436 71.0419 308.43 71.1466 309.422 71.2587L309.365 71.7555C310.357 71.8676 311.347 71.987 312.334 72.1138L312.398 71.6178C313.388 71.7449 314.376 71.8793 315.361 72.021L315.29 72.5159C316.276 72.6577 317.26 72.8068 318.241 72.9631L318.32 72.4694C319.308 72.6269 320.295 72.7918 321.279 72.9639L321.192 73.4564C322.174 73.6282 323.153 73.8071 324.129 73.9933L324.223 73.5022C325.202 73.689 326.179 73.883 327.153 74.0842L327.052 74.5738C328.031 74.7759 329.006 74.9852 329.979 75.2016L330.088 74.7136C331.064 74.9306 332.036 75.1549 333.007 75.3863L332.891 75.8726C333.858 76.1035 334.823 76.3414 335.785 76.5865L335.908 76.1019C336.878 76.3489 337.844 76.603 338.808 76.8642L338.677 77.3468C339.64 77.6077 340.599 77.8757 341.556 78.1507L341.694 77.6702C342.653 77.946 343.609 78.2288 344.562 78.5186L344.417 78.997C345.37 79.287 346.321 79.584 347.268 79.888L347.421 79.4119C348.373 79.7174 349.322 80.03 350.268 80.3495L350.108 80.8232C351.051 81.1419 351.991 81.4676 352.928 81.8002L353.096 81.329C354.036 81.6628 354.974 82.0036 355.908 82.3513L355.734 82.8199C356.668 83.1679 357.6 83.5227 358.528 83.8844L358.71 83.4185C359.64 83.7811 360.567 84.1506 361.491 84.5268L361.302 84.9899C362.224 85.3652 363.142 85.7474 364.056 86.1363L364.252 85.6761C365.172 86.0675 366.089 86.4656 367.002 86.8704L366.799 87.3275C367.71 87.7313 368.617 88.1418 369.521 88.559L369.731 88.105C370.636 88.5232 371.539 88.9481 372.437 89.3795L372.22 89.8303C373.119 90.2619 374.014 90.7001 374.905 91.1448L375.128 90.6975C376.022 91.1436 376.912 91.5963 377.798 92.0555L377.568 92.4994C378.452 92.9574 379.332 93.422 380.208 93.8929L380.445 93.4526C381.324 93.9256 382.2 94.405 383.072 94.8909L382.829 95.3277C383.699 95.8128 384.565 96.3043 385.428 96.8022L385.678 96.3692C386.542 96.8683 387.402 97.3738 388.258 97.8856L388.002 98.3148C388.857 98.8257 389.707 99.343 390.554 99.8665L390.817 99.4413C391.666 99.9668 392.512 100.499 393.353 101.036L393.083 101.458C393.922 101.994 394.757 102.537 395.587 103.086L395.863 102.669C396.695 103.219 397.524 103.776 398.347 104.338L398.065 104.751C398.888 105.313 399.706 105.881 400.52 106.455L400.808 106.047C401.624 106.622 402.435 107.204 403.242 107.791L402.948 108.195C403.753 108.781 404.553 109.373 405.348 109.971L405.649 109.572C406.447 110.172 407.241 110.778 408.03 111.389L407.723 111.784C408.51 112.395 409.293 113.011 410.07 113.633L410.382 113.242C411.162 113.865 411.937 114.495 412.706 115.129L412.388 115.515C413.157 116.149 413.92 116.788 414.679 117.433L415.003 117.052C415.763 117.699 416.519 118.352 417.269 119.01L416.94 119.386C417.689 120.042 418.432 120.704 419.171 121.371L419.506 121C420.247 121.669 420.983 122.344 421.713 123.024L421.372 123.39C422.101 124.069 422.825 124.753 423.543 125.442L423.889 125.081C424.61 125.773 425.325 126.469 426.035 127.171L425.683 127.527C426.391 128.227 427.094 128.932 427.791 129.643L428.148 129.292C428.847 130.005 429.541 130.722 430.229 131.445L429.867 131.79C430.554 132.511 431.235 133.237 431.911 133.969L432.278 133.629C432.956 134.363 433.628 135.101 434.294 135.844L433.922 136.178C434.587 136.919 435.246 137.665 435.899 138.416L436.276 138.088C436.932 138.841 437.581 139.599 438.225 140.362L437.843 140.685C438.485 141.446 439.122 142.212 439.753 142.982L440.14 142.666C440.771 143.438 441.398 144.215 442.018 144.997L441.627 145.307C442.246 146.087 442.859 146.872 443.466 147.661L443.862 147.356C444.471 148.147 445.074 148.943 445.672 149.744L445.271 150.043C445.866 150.841 446.455 151.643 447.038 152.449L447.443 152.157C448.028 152.965 448.606 153.779 449.179 154.597L448.769 154.883C449.34 155.699 449.906 156.52 450.465 157.345L450.879 157.064C451.438 157.89 451.992 158.72 452.54 159.554L452.122 159.828C452.667 160.661 453.207 161.497 453.741 162.338L454.163 162.07C454.698 162.913 455.227 163.76 455.75 164.611L455.324 164.873C455.844 165.721 456.359 166.573 456.867 167.43L457.297 167.175C457.806 168.032 458.308 168.894 458.805 169.761L458.371 170.009C458.866 170.873 459.355 171.741 459.837 172.613L460.275 172.371C460.758 173.244 461.234 174.121 461.704 175.003L461.263 175.238C461.732 176.115 462.193 176.997 462.649 177.882L463.093 177.653C463.55 178.541 464 179.432 464.443 180.328L463.995 180.55C464.437 181.442 464.873 182.338 465.302 183.238L465.753 183.023C466.182 183.922 466.604 184.826 467.02 185.733L466.565 185.941C466.98 186.846 467.388 187.754 467.789 188.666L468.247 188.465C468.649 189.379 469.045 190.297 469.434 191.219L468.973 191.413C469.359 192.329 469.739 193.248 470.112 194.17L470.575 193.983C470.949 194.907 471.316 195.835 471.676 196.767L471.21 196.947C471.569 197.876 471.922 198.809 472.268 199.745L472.737 199.572C473.082 200.506 473.42 201.444 473.752 202.386L473.28 202.552C473.611 203.49 473.934 204.431 474.251 205.375L474.725 205.216C475.042 206.163 475.353 207.113 475.656 208.065L475.18 208.217C475.482 209.165 475.776 210.116 476.064 211.07L476.543 210.925C476.831 211.879 477.112 212.836 477.386 213.795L476.905 213.933C477.178 214.89 477.444 215.85 477.703 216.813L478.186 216.683C478.445 217.647 478.698 218.614 478.943 219.584L478.458 219.707C478.701 220.669 478.938 221.634 479.167 222.602L479.653 222.487C479.883 223.458 480.106 224.431 480.321 225.407L479.833 225.515C480.048 226.488 480.256 227.465 480.456 228.443L480.946 228.343C481.146 229.317 481.338 230.294 481.524 231.274L481.033 231.367C481.217 232.344 481.395 233.323 481.566 234.305L482.058 234.219C482.229 235.203 482.393 236.19 482.549 237.179L482.055 237.257C482.21 238.238 482.358 239.222 482.499 240.208L482.994 240.138C483.135 241.123 483.268 242.111 483.394 243.101L482.898 243.164C483.024 244.152 483.143 245.142 483.254 246.134L483.751 246.078C483.862 247.07 483.966 248.064 484.063 249.06L483.565 249.109C483.661 250.096 483.749 251.085 483.83 252.076L484.329 252.035C484.41 253.029 484.484 254.025 484.551 255.022L484.052 255.056C484.118 256.051 484.178 257.048 484.23 258.048L484.729 258.022C484.78 259.014 484.825 260.008 484.861 261.004L484.362 261.022C484.398 262.015 484.428 263.009 484.45 264.005L484.95 263.994Z" fill="#60ADED" fill-opacity="0.1" stroke="url(#paint2_linear_459_1272)" stroke-linejoin="round" stroke-dasharray="3 3"/>
<path d="M246.69 188C257.8 188 266.812 197.012 266.812 208.121" stroke="#F02E5C" stroke-width="1.5" stroke-linecap="round"/>
<path d="M246 195.657C253.149 195.657 258.937 201.445 258.937 208.595" stroke="#F02E5C" stroke-width="1.5" stroke-linecap="round"/>
<path d="M516.69 174C527.8 174 536.812 183.012 536.812 194.121" stroke="#F02E5C" stroke-width="1.5" stroke-linecap="round"/>
<path d="M516 181.657C523.149 181.657 528.937 187.445 528.937 194.595" stroke="#F02E5C" stroke-width="1.5" stroke-linecap="round"/>
<path d="M178.304 226H132.304V272H178.304V226Z" fill="url(#paint3_linear_459_1272)"/>
<path d="M280 208H235V272H280V208Z" fill="url(#paint4_linear_459_1272)"/>
<path fill-rule="evenodd" clip-rule="evenodd" d="M350.772 275.563H383.636C385.318 275.563 386.93 275.694 388.419 275.816C391.953 276.104 394.799 276.337 396.264 274.621C397.383 274.737 398.729 274.626 400.226 274.502C401.451 274.401 402.778 274.291 404.162 274.291H514.347L514.356 274.3C516.12 260.858 501.404 262.234 501.404 262.234C496.986 245.946 482.564 248.726 482.564 248.726C474.315 226.089 451.653 239.699 451.653 239.699C447.235 226.498 433.694 231.425 433.694 231.425C430.746 215.315 414.56 221.311 414.56 221.311C414.496 221.134 414.432 220.967 414.358 220.8C411.203 213.182 402.648 212.197 397.336 216.082C396.866 201.684 376.904 197.832 371.245 211.334C371.155 211.535 371.077 211.736 370.999 211.948C370.999 211.948 357.421 206.978 350.772 216.39V215.566C350.772 215.566 337.439 206.497 331.384 221.76C331.384 221.76 317.55 216.696 314.466 229.769C307.81 228.426 299.556 228.81 293.44 235.883C286.982 233.643 275.678 232.122 270.565 245.985C270.565 245.985 257.667 243.529 253.715 257.921C253.715 257.921 240.554 266.958 242.131 278.845L242.139 278.836H350.772V275.563Z" fill="url(#paint5_linear_459_1272)"/>
<path d="M132 251H170" stroke="#F02E5C" stroke-width="1.5" stroke-linecap="round"/>
<path d="M97 271.697C97 251.428 112.474 235 131.566 235H170" stroke="#F02E5C" stroke-width="1.5" stroke-linecap="round"/>
<path d="M104 272.103C104 256.03 116.273 243 131.413 243" stroke="#F02E5C" stroke-width="1.5" stroke-linecap="round"/>
<path d="M113 272C113 260.405 121.51 251 132 251" stroke="#F02E5C" stroke-width="1.5" stroke-linecap="round"/>
<path d="M131 243H169" stroke="#F02E5C" stroke-width="1.5" stroke-linecap="round"/>
<path d="M114 164H152" stroke="#F02E5C" stroke-width="1.5" stroke-linecap="round"/>
<path d="M79 184.697C79 164.428 94.4739 148 113.566 148H152" stroke="#F02E5C" stroke-width="1.5" stroke-linecap="round"/>
<path d="M86 185.103C86 169.03 98.2734 156 113.413 156" stroke="#F02E5C" stroke-width="1.5" stroke-linecap="round"/>
<path d="M95 185C95 173.405 103.51 164 114 164" stroke="#F02E5C" stroke-width="1.5" stroke-linecap="round"/>
<path d="M113 156H151" stroke="#F02E5C" stroke-width="1.5" stroke-linecap="round"/>
<path d="M330 113H292" stroke="#F02E5C" stroke-width="1.5" stroke-linecap="round"/>
<path d="M365 133.697C365 113.428 349.526 97 330.434 97H292" stroke="#F02E5C" stroke-width="1.5" stroke-linecap="round"/>
<path d="M358 134.103C358 118.03 345.727 105 330.587 105" stroke="#F02E5C" stroke-width="1.5" stroke-linecap="round"/>
<path d="M349 134C349 122.405 340.49 113 330 113" stroke="#F02E5C" stroke-width="1.5" stroke-linecap="round"/>
<path d="M331 105H293" stroke="#F02E5C" stroke-width="1.5" stroke-linecap="round"/>
<path d="M298.498 118L298.498 183" stroke="#F02E5C" stroke-width="1.5" stroke-linecap="round" stroke-linejoin="round" stroke-dasharray="4.98 4.98"/>
<path d="M298.5 159C300.433 159 302 157.433 302 155.5C302 153.567 300.433 152 298.5 152C296.567 152 295 153.567 295 155.5C295 157.433 296.567 159 298.5 159Z" fill="white" stroke="#F02E5C" stroke-width="1.5" stroke-miterlimit="10"/>
<path d="M319.721 109.184C330.701 97.9067 330.461 79.8631 319.184 68.8823C307.907 57.9015 289.863 58.1417 278.882 69.4189C267.902 80.696 268.142 98.7396 279.419 109.72C290.696 120.701 308.74 120.461 319.721 109.184Z" fill="white" stroke="url(#paint6_linear_459_1272)" stroke-width="2" stroke-miterlimit="10"/>
<path d="M298.347 73.7004C298.624 73.4578 298.839 73.2538 298.991 73.1048C299.056 73.0424 299.115 72.9831 299.142 72.9558C299.148 72.9502 299.152 72.946 299.155 72.9434L299.181 72.9176L299.182 72.916L299.229 72.8715L299.282 72.8115L299.304 72.7872L299.357 72.8456L299.359 72.8469L299.405 72.8978L299.426 72.921L299.448 72.9435L299.583 73.0818L299.595 73.0942L299.607 73.1065C299.757 73.2558 299.974 73.462 300.252 73.7083L300.252 73.7083L300.258 73.7131C301.021 74.3826 301.831 74.9966 302.683 75.5503C305.413 77.3438 308.508 78.516 311.745 78.9839L311.746 78.9841L311.802 78.992V88.0178C311.802 94.0835 308.858 98.6497 305.789 101.753C302.854 104.721 299.857 106.309 299.396 106.544L299.385 106.549L299.352 106.566L299.305 106.587L299.277 106.573L299.262 106.565L299.245 106.557C299.045 106.459 295.9 104.869 292.816 101.747C289.741 98.6332 286.802 94.0761 286.802 88.0107V78.9849L286.857 78.977L286.859 78.9767C290.097 78.5077 293.191 77.3338 295.92 75.5381C296.769 74.9829 297.58 74.3696 298.344 73.7026L298.347 73.7004Z" fill="#FEE1BD" stroke="#F02E5C" stroke-width="4"/>
<path d="M298.5 137C300.433 137 302 135.433 302 133.5C302 131.567 300.433 130 298.5 130C296.567 130 295 131.567 295 133.5C295 135.433 296.567 137 298.5 137Z" fill="white" stroke="#F02E5C" stroke-width="1.5" stroke-miterlimit="10"/>
<path d="M140.128 171.432V226.432" stroke="#F02E5C" stroke-width="1.5" stroke-linecap="round" stroke-linejoin="round" stroke-dasharray="4.98 4.98"/>
<path d="M139.932 211.432C141.865 211.432 143.432 209.865 143.432 207.932C143.432 205.999 141.865 204.432 139.932 204.432C137.999 204.432 136.432 205.999 136.432 207.932C136.432 209.865 137.999 211.432 139.932 211.432Z" fill="white" stroke="#F02E5C" stroke-width="1.5" stroke-miterlimit="10"/>
<path d="M139.932 194.432C141.865 194.432 143.432 192.865 143.432 190.932C143.432 188.999 141.865 187.432 139.932 187.432C137.999 187.432 136.432 188.999 136.432 190.932C136.432 192.865 137.999 194.432 139.932 194.432Z" fill="white" stroke="#F02E5C" stroke-width="1.5" stroke-miterlimit="10"/>
<path d="M153.182 170.613C166.813 162.743 171.484 145.313 163.613 131.682C155.743 118.05 138.313 113.38 124.682 121.25C111.05 129.12 106.38 146.55 114.25 160.182C122.12 173.813 139.55 178.484 153.182 170.613Z" fill="white" stroke="url(#paint7_linear_459_1272)" stroke-width="2" stroke-miterlimit="10"/>
<path d="M141.581 141.733C140.746 142.291 139.764 142.589 138.759 142.589C137.413 142.588 136.122 142.052 135.17 141.1C134.217 140.148 133.682 138.857 133.681 137.51C133.681 136.506 133.979 135.524 134.537 134.689C135.095 133.854 135.888 133.203 136.816 132.818C137.744 132.434 138.765 132.333 139.75 132.529C140.735 132.725 141.64 133.209 142.351 133.919C143.061 134.629 143.544 135.534 143.74 136.519C143.936 137.505 143.836 138.526 143.451 139.454C143.067 140.382 142.416 141.175 141.581 141.733Z" fill="#F02E5C"/>
<path d="M126.051 145.203C126.742 145.203 127.417 144.998 127.991 144.615C128.565 144.231 129.012 143.686 129.277 143.048C129.541 142.41 129.61 141.708 129.475 141.03C129.341 140.353 129.008 139.731 128.52 139.243C128.032 138.754 127.409 138.422 126.732 138.287C126.055 138.152 125.353 138.222 124.715 138.486C124.077 138.75 123.532 139.198 123.148 139.772C122.764 140.346 122.56 141.021 122.56 141.712C122.56 142.637 122.929 143.525 123.583 144.179C124.238 144.834 125.125 145.202 126.051 145.203Z" fill="#F02E5C"/>
<path d="M151.425 145.208C152.115 145.208 152.79 145.003 153.365 144.62C153.939 144.236 154.386 143.691 154.651 143.053C154.915 142.415 154.984 141.713 154.849 141.036C154.714 140.358 154.382 139.736 153.894 139.248C153.405 138.76 152.783 138.427 152.106 138.292C151.429 138.158 150.727 138.227 150.089 138.491C149.451 138.755 148.905 139.203 148.522 139.777C148.138 140.351 147.933 141.026 147.933 141.717C147.934 142.642 148.302 143.53 148.957 144.185C149.612 144.839 150.499 145.207 151.425 145.208Z" fill="#F02E5C"/>
<path d="M150.138 146.825H152.698C154.378 146.827 155.989 147.495 157.178 148.683C158.366 149.871 159.034 151.482 159.036 153.162L157.767 154.432H150.77V153.163C150.77 150.921 150.028 148.756 148.679 146.995C149.156 146.882 149.645 146.825 150.138 146.825Z" fill="#F02E5C"/>
<path d="M129.186 154.432H148.231V153.163C148.231 151.146 147.43 149.212 146.004 147.787C144.578 146.361 142.644 145.56 140.628 145.56H136.789C134.772 145.56 132.839 146.361 131.413 147.787C129.987 149.212 129.186 151.146 129.186 153.163L129.186 154.432Z" fill="#F02E5C"/>
<path d="M119.701 154.432H126.647L126.647 153.163C126.647 150.916 127.392 148.747 128.746 146.985C128.282 146.879 127.807 146.825 127.329 146.825H124.77C123.089 146.827 121.479 147.495 120.29 148.683C119.102 149.871 118.434 151.482 118.432 153.162L119.701 154.432Z" fill="#F02E5C"/>
<path d="M245 105H202.219V271.5H245V105Z" fill="url(#paint8_linear_459_1272)" stroke="#F02E5C" stroke-width="1.5"/>
<path d="M192.969 105H234.016V271.5H171V118.875H192.969V105Z" fill="white" stroke="#F02E5C" stroke-width="1.5"/>
<path d="M195.898 134.264H186.031V145.837H195.898V134.264Z" stroke="#F02E5C" stroke-width="1.5" stroke-linejoin="bevel"/>
<path d="M196.427 161.346H186.367V172.919H196.427V161.346Z" stroke="#F02E5C" stroke-width="1.5" stroke-linejoin="bevel"/>
<path d="M219.38 134.264H209.514V145.837H219.38V134.264Z" stroke="#F02E5C" stroke-width="1.5" stroke-linejoin="bevel"/>
<path d="M219.38 161.67H209.514V173.244H219.38V161.67Z" stroke="#F02E5C" stroke-width="1.5" stroke-linejoin="bevel"/>
<path d="M219.38 189.077H209.514V200.65H219.38V189.077Z" stroke="#F02E5C" stroke-width="1.5" stroke-linejoin="bevel"/>
<path d="M219.38 216.484H209.514V228.057H219.38V216.484Z" stroke="#F02E5C" stroke-width="1.5" stroke-linejoin="bevel"/>
<path d="M429 250L382 250" stroke="#F02E5C" stroke-width="1.5" stroke-linecap="round"/>
<path d="M448 271C448 259.405 439.49 250 429 250" stroke="#F02E5C" stroke-width="1.5" stroke-linecap="round"/>
<path d="M457 271.103C457 255.03 444.727 242 429.587 242" stroke="#F02E5C" stroke-width="1.5" stroke-linecap="round"/>
<path d="M430 242H382" stroke="#F02E5C" stroke-width="1.5" stroke-linecap="round"/>
<path d="M459 256C459 243.297 446.016 233 430 233" stroke="#F02E5C" stroke-width="1.5" stroke-linecap="round"/>
<path d="M430 233H382" stroke="#F02E5C" stroke-width="1.5" stroke-linecap="round"/>
<path d="M481.75 271.25V128.75H517.25V271.25H481.75Z" fill="url(#paint9_linear_459_1272)" stroke="#F02E5C" stroke-width="1.5"/>
<path d="M473.75 140V128.75H507.75V271.25H454.75V140.75H473H473.75V140Z" fill="white" stroke="#F02E5C" stroke-width="1.5"/>
<path d="M467.75 162.569V154.06H474.783V162.569H467.75Z" stroke="#F02E5C" stroke-width="1.5" stroke-linejoin="bevel"/>
<path d="M468.041 185.991V177.481H475.241V185.991H468.041Z" stroke="#F02E5C" stroke-width="1.5" stroke-linejoin="bevel"/>
<path d="M488.06 162.569V154.06H495.093V162.569H488.06Z" stroke="#F02E5C" stroke-width="1.5" stroke-linejoin="bevel"/>
<path d="M488.06 186.271V177.762H495.093V186.271H488.06Z" stroke="#F02E5C" stroke-width="1.5" stroke-linejoin="bevel"/>
<path d="M488.06 209.975V201.466H495.093V209.975H488.06Z" stroke="#F02E5C" stroke-width="1.5" stroke-linejoin="bevel"/>
<path d="M488.06 233.678V225.168H495.093V233.678H488.06Z" stroke="#F02E5C" stroke-width="1.5" stroke-linejoin="bevel"/>
<path d="M110.25 265.25V177.75H100.75V265.25H110.25Z" fill="url(#paint10_linear_459_1272)" stroke="#F02E5C" stroke-width="1.5" stroke-linecap="round" stroke-linejoin="round"/>
<rect x="66.75" y="177.75" width="34.5" height="87.5" fill="white" stroke="#F02E5C" stroke-width="1.5"/>
<path d="M93.3728 195.373H87V189H93.3728V195.373Z" stroke="#F02E5C" stroke-width="1.5" stroke-linecap="round" stroke-linejoin="round"/>
<path d="M93.3728 212.739H87V206.366H93.3728V212.739Z" stroke="#F02E5C" stroke-width="1.5" stroke-linecap="round" stroke-linejoin="round"/>
<path d="M93.3728 230.373H87V224H93.3728V230.373Z" stroke="#F02E5C" stroke-width="1.5" stroke-linecap="round" stroke-linejoin="round"/>
<path d="M93.3728 247.739H87V241.366H93.3728V247.739Z" stroke="#F02E5C" stroke-width="1.5" stroke-linecap="round" stroke-linejoin="round"/>
<path d="M80.3728 195.373H74V189H80.3728V195.373Z" stroke="#F02E5C" stroke-width="1.5" stroke-linecap="round" stroke-linejoin="round"/>
<path d="M80.3728 212.739H74V206.366H80.3728V212.739Z" stroke="#F02E5C" stroke-width="1.5" stroke-linecap="round" stroke-linejoin="round"/>
<path d="M80.3728 230.373H74V224H80.3728V230.373Z" stroke="#F02E5C" stroke-width="1.5" stroke-linecap="round" stroke-linejoin="round"/>
<path d="M80.3728 247.739H74V241.366H80.3728V247.739Z" stroke="#F02E5C" stroke-width="1.5" stroke-linecap="round" stroke-linejoin="round"/>
<path d="M366.25 271.25V133.372H355.772V271.25H366.25Z" fill="url(#paint11_linear_459_1272)" stroke="#F02E5C" stroke-width="1.5" stroke-linecap="round" stroke-linejoin="round"/>
<rect x="318.75" y="133.372" width="37.7" height="137.878" fill="white" stroke="#F02E5C" stroke-width="1.5"/>
<path d="M332.561 152.628H325.622V145.689H332.561V152.628Z" stroke="#F02E5C" stroke-width="1.5" stroke-linecap="round" stroke-linejoin="round"/>
<path d="M332.561 171.538H325.622V164.599H332.561V171.538Z" stroke="#F02E5C" stroke-width="1.5" stroke-linecap="round" stroke-linejoin="round"/>
<path d="M332.561 190.74H325.622V183.8H332.561V190.74Z" stroke="#F02E5C" stroke-width="1.5" stroke-linecap="round" stroke-linejoin="round"/>
<path d="M332.561 209.649H325.622V202.71H332.561V209.649Z" stroke="#F02E5C" stroke-width="1.5" stroke-linecap="round" stroke-linejoin="round"/>
<path d="M332.561 228.851H325.622V221.911H332.561V228.851Z" stroke="#F02E5C" stroke-width="1.5" stroke-linecap="round" stroke-linejoin="round"/>
<path d="M332.561 247.761H325.622V240.821H332.561V247.761Z" stroke="#F02E5C" stroke-width="1.5" stroke-linecap="round" stroke-linejoin="round"/>
<path d="M347.806 152.628H340.867V145.689H347.806V152.628Z" stroke="#F02E5C" stroke-width="1.5" stroke-linecap="round" stroke-linejoin="round"/>
<path d="M347.806 171.538H340.867V164.599H347.806V171.538Z" stroke="#F02E5C" stroke-width="1.5" stroke-linecap="round" stroke-linejoin="round"/>
<path d="M347.806 190.739H340.867V183.8H347.806V190.739Z" stroke="#F02E5C" stroke-width="1.5" stroke-linecap="round" stroke-linejoin="round"/>
<path d="M347.806 209.649H340.867V202.71H347.806V209.649Z" stroke="#F02E5C" stroke-width="1.5" stroke-linecap="round" stroke-linejoin="round"/>
<path d="M347.806 228.851H340.867V221.911H347.806V228.851Z" stroke="#F02E5C" stroke-width="1.5" stroke-linecap="round" stroke-linejoin="round"/>
<path d="M347.806 247.76H340.867V240.821H347.806V247.76Z" stroke="#F02E5C" stroke-width="1.5" stroke-linecap="round" stroke-linejoin="round"/>
<path d="M142.798 274.287H66.0681C66.0681 274.287 66 274.249 66 274.196V225.463C66 225.463 75.4267 217.111 79.7088 231.167C79.7088 231.167 89.9449 226.287 91.8061 239.398C91.8061 239.398 100.37 235.388 103.162 246.13C103.162 246.13 117.491 235.055 122.704 253.476C122.704 253.476 131.82 251.214 134.612 264.468C134.612 264.468 143.917 263.348 142.798 274.287Z" fill="url(#paint12_linear_459_1272)"/>
<path d="M318.778 175H294.047V271.25H318.778V175Z" fill="url(#paint13_linear_459_1272)" stroke="#F02E5C" stroke-width="1.5"/>
<path d="M288.7 175H312.428V271.25H276V183.021H288.7V175Z" fill="white" stroke="#F02E5C" stroke-width="1.5"/>
<path d="M290.393 191.917H284.689V198.607H290.393V191.917Z" stroke="#F02E5C" stroke-width="1.5" stroke-linejoin="bevel"/>
<path d="M290.699 207.572H284.884V214.262H290.699V207.572Z" stroke="#F02E5C" stroke-width="1.5" stroke-linejoin="bevel"/>
<path d="M303.968 191.917H298.265V198.607H303.968V191.917Z" stroke="#F02E5C" stroke-width="1.5" stroke-linejoin="bevel"/>
<path d="M303.968 207.76H298.265V214.45H303.968V207.76Z" stroke="#F02E5C" stroke-width="1.5" stroke-linejoin="bevel"/>
<path d="M303.968 223.604H298.265V230.294H303.968V223.604Z" stroke="#F02E5C" stroke-width="1.5" stroke-linejoin="bevel"/>
<path d="M303.968 239.446H298.265V246.136H303.968V239.446Z" stroke="#F02E5C" stroke-width="1.5" stroke-linejoin="bevel"/>
<path fill-rule="evenodd" clip-rule="evenodd" d="M161.206 212.431C161.99 205.466 158.461 198.387 151.588 194.652C149.524 193.527 147.326 192.805 145.108 192.444C144.323 199.409 147.853 206.487 154.725 210.222C156.789 211.347 158.987 212.069 161.206 212.431Z" fill="#269B7F" stroke="#F02E5C" stroke-width="1.5" stroke-miterlimit="10"/>
<path fill-rule="evenodd" clip-rule="evenodd" d="M173.089 197.779C179.962 194.043 183.491 186.965 182.707 180C180.488 180.361 178.29 181.083 176.226 182.208C169.354 185.943 165.824 193.022 166.609 199.987C168.827 199.626 171.025 198.903 173.089 197.779Z" fill="#269B7F" stroke="#F02E5C" stroke-width="1.5" stroke-miterlimit="10"/>
<path d="M162.729 219.447C162.729 216.775 162.234 212.193 162.77 207.478C163.296 202.907 166.506 199.533 166.506 199.533M162.729 219.447V219.468M162.729 219.447V278.782" stroke="#F02E5C" stroke-width="1.5" stroke-miterlimit="10"/>
<path fill-rule="evenodd" clip-rule="evenodd" d="M446.206 214.431C446.99 207.466 443.461 200.387 436.588 196.652C434.524 195.527 432.326 194.805 430.108 194.444C429.323 201.409 432.853 208.487 439.725 212.222C441.789 213.347 443.987 214.069 446.206 214.431Z" fill="#269B7F" stroke="#F02E5C" stroke-width="1.5" stroke-miterlimit="10"/>
<path fill-rule="evenodd" clip-rule="evenodd" d="M458.089 199.779C464.962 196.043 468.491 188.965 467.707 182C465.488 182.361 463.29 183.083 461.226 184.208C454.354 187.943 450.824 195.022 451.609 201.987C453.827 201.626 456.025 200.903 458.089 199.779Z" fill="#269B7F" stroke="#F02E5C" stroke-width="1.5" stroke-miterlimit="10"/>
<path d="M447.729 221.447C447.729 218.775 447.234 214.193 447.77 209.478C448.296 204.907 451.506 201.533 451.506 201.533M447.729 221.447V221.468M447.729 221.447V280.782" stroke="#F02E5C" stroke-width="1.5" stroke-miterlimit="10"/>
<path fill-rule="evenodd" clip-rule="evenodd" d="M553.206 196.431C553.99 189.466 550.461 182.387 543.588 178.652C541.524 177.527 539.326 176.805 537.108 176.444C536.323 183.409 539.853 190.487 546.725 194.222C548.789 195.347 550.987 196.069 553.206 196.431Z" fill="#269B7F" stroke="#F02E5C" stroke-width="1.5" stroke-miterlimit="10"/>
<path fill-rule="evenodd" clip-rule="evenodd" d="M565.089 181.779C571.962 178.043 575.491 170.965 574.707 164C572.488 164.361 570.29 165.083 568.226 166.208C561.354 169.943 557.824 177.022 558.609 183.987C560.827 183.626 563.025 182.903 565.089 181.779Z" fill="#269B7F" stroke="#F02E5C" stroke-width="1.5" stroke-miterlimit="10"/>
<path d="M554.729 203.447C554.729 200.775 554.234 196.193 554.77 191.478C555.296 186.907 558.506 183.533 558.506 183.533M554.729 203.447V203.468M554.729 203.447V262.782" stroke="#F02E5C" stroke-width="1.5" stroke-miterlimit="10"/>
<path d="M538.259 209.315H555.057V271.468H538.259V209.315Z" fill="url(#paint14_linear_459_1272)" stroke="#F02E5C" stroke-width="1.5" stroke-linecap="round" stroke-linejoin="round"/>
<path d="M527.805 196L517 209.355V271.468H538.8L538.099 209.265L527.805 196Z" fill="white" stroke="#F02E5C" stroke-width="1.5" stroke-linecap="round" stroke-linejoin="round"/>
<path d="M549.854 224.641H543.481V218.268H549.854V224.641Z" stroke="#F02E5C" stroke-width="1.5" stroke-linecap="round" stroke-linejoin="round"/>
<path d="M530.991 224.641H524.618V218.268H530.991V224.641Z" stroke="#F02E5C" stroke-width="1.5" stroke-linecap="round" stroke-linejoin="round"/>
<path d="M549.854 242.007H543.481V235.634H549.854V242.007Z" stroke="#F02E5C" stroke-width="1.5" stroke-linecap="round" stroke-linejoin="round"/>
<path d="M530.991 256.822H524.618V235.635H530.991V256.822Z" stroke="#F02E5C" stroke-width="1.5" stroke-linecap="round" stroke-linejoin="round"/>
<path d="M527.805 196L538.259 209.315H555.057L545.352 196H527.805Z" fill="url(#paint15_linear_459_1272)" stroke="#F02E5C" stroke-width="1.5" stroke-linecap="round" stroke-linejoin="round"/>
<path d="M31.9385 170L45.7502 187.903H68.9728L52.5087 170H31.9385Z" fill="url(#paint16_linear_459_1272)" stroke="#CE2F55" stroke-linecap="round" stroke-linejoin="round"/>
<path d="M68.9726 187.903H45.75V274.356H68.9726V187.903Z" fill="url(#paint17_linear_459_1272)" stroke="#CE2F55" stroke-width="1.5" stroke-linecap="round" stroke-linejoin="round"/>
<path d="M63.0658 201.747H54.251V210.562H63.0658V201.747Z" stroke="#F02E5C" stroke-width="1.5" stroke-linecap="round" stroke-linejoin="round"/>
<path d="M63.0658 224.411H54.251V233.226H63.0658V224.411Z" stroke="#F02E5C" stroke-width="1.5" stroke-linecap="round" stroke-linejoin="round"/>
<path d="M31.9381 170L17 188.467V274.356H47.1448L46.1755 188.336L31.9381 170Z" fill="white" stroke="#CE2F55" stroke-width="1.5" stroke-linecap="round" stroke-linejoin="round"/>
<path d="M36.3125 200.346H25.2383V220.115H36.3125V200.346Z" stroke="#F02E5C" stroke-width="1.5" stroke-linecap="round" stroke-linejoin="round"/>
<path fill-rule="evenodd" clip-rule="evenodd" d="M17.2056 158.788C17.9898 151.823 14.4607 144.744 7.5881 141.009C5.52426 139.884 3.32631 139.162 1.10768 138.801C0.323426 145.766 3.8526 152.844 10.7252 156.579C12.789 157.704 14.987 158.426 17.2056 158.788Z" fill="#269B7F" stroke="#F02E5C" stroke-width="1.5" stroke-miterlimit="10"/>
<path fill-rule="evenodd" clip-rule="evenodd" d="M27.0891 143.779C33.9617 140.043 37.4908 132.965 36.7066 126C34.4879 126.361 32.29 127.083 30.2261 128.208C23.3536 131.943 19.8244 139.022 20.6087 145.987C22.8273 145.626 25.0253 144.903 27.0891 143.779Z" fill="#269B7F" stroke="#F02E5C" stroke-width="1.5" stroke-miterlimit="10"/>
<path d="M17.1569 165.15C17.1569 162.553 16.784 158.102 17.188 153.52C17.5841 149.079 20 145.801 20 145.801M17.1569 165.15V165.17V165.15ZM17.1569 165.15V222.801V165.15Z" fill="white"/>
<path d="M17.1569 165.15C17.1569 162.554 16.784 158.102 17.188 153.52C17.5841 149.079 20 145.801 20 145.801M17.1569 165.15V165.17M17.1569 165.15V222.801" stroke="#F02E5C" stroke-width="1.5" stroke-miterlimit="10"/>
<path fill-rule="evenodd" clip-rule="evenodd" d="M372.206 150.788C372.99 143.823 369.461 136.744 362.588 133.009C360.524 131.884 358.326 131.162 356.108 130.801C355.323 137.766 358.853 144.844 365.725 148.579C367.789 149.704 369.987 150.426 372.206 150.788Z" fill="#269B7F" stroke="#F02E5C" stroke-width="1.5" stroke-miterlimit="10"/>
<path fill-rule="evenodd" clip-rule="evenodd" d="M382.089 135.779C388.962 132.043 392.491 124.965 391.707 118C389.488 118.361 387.29 119.083 385.226 120.208C378.354 123.943 374.824 131.022 375.609 137.987C377.827 137.626 380.025 136.903 382.089 135.779Z" fill="#269B7F" stroke="#F02E5C" stroke-width="1.5" stroke-miterlimit="10"/>
<path d="M372.157 157.15C372.157 154.553 371.784 150.102 372.188 145.52C372.584 141.079 375 137.801 375 137.801M372.157 157.15V157.17V157.15ZM372.157 157.15V214.801V157.15Z" fill="white"/>
<path d="M372.157 157.15C372.157 154.554 371.784 150.102 372.188 145.52C372.584 141.079 375 137.801 375 137.801M372.157 157.15V157.17M372.157 157.15V214.801" stroke="#F02E5C" stroke-width="1.5" stroke-miterlimit="10"/>
<path d="M363.498 203.84L345 226.629V271.127H383.603V222.876L363.498 203.84Z" fill="white" stroke="#F02E5C" stroke-width="1.5" stroke-linecap="round" stroke-linejoin="round"/>
<path d="M407.999 224.163H383.603V271.127H407.999V224.163Z" fill="url(#paint18_linear_459_1272)" stroke="#F02E5C" stroke-width="1.5" stroke-linecap="round" stroke-linejoin="round"/>
<path d="M363.637 203.84L383.848 224.163H408L389.044 204.091L363.637 203.84Z" fill="url(#paint19_linear_459_1272)" stroke="#F02E5C" stroke-width="1.5" stroke-linecap="round" stroke-linejoin="round"/>
<path d="M369.056 244.457H358.445V263.399H369.056V244.457Z" stroke="#F02E5C" stroke-width="1.5" stroke-linecap="round" stroke-linejoin="round"/>
<path d="M369.228 223.721H358.445V234.503H369.228V223.721Z" stroke="#F02E5C" stroke-width="1.5" stroke-linecap="round" stroke-linejoin="round"/>
<path d="M400.068 234.503H391.622V242.949H400.068V234.503Z" stroke="#F02E5C" stroke-width="1.5" stroke-linecap="round" stroke-linejoin="round"/>
<path d="M400.068 255.239H391.622V263.685H400.068V255.239Z" stroke="#F02E5C" stroke-width="1.5" stroke-linecap="round" stroke-linejoin="round"/>
<path d="M417 190.954L417 249.405" stroke="#F02E5C" stroke-width="1.5" stroke-linecap="round" stroke-linejoin="round" stroke-dasharray="4.98 4.98"/>
<path d="M422.446 196.293C435.911 192.685 443.901 178.845 440.293 165.38C436.685 151.915 422.845 143.925 409.38 147.533C395.915 151.141 387.925 164.981 391.533 178.446C395.141 191.911 408.981 199.901 422.446 196.293Z" fill="white" stroke="url(#paint20_linear_459_1272)" stroke-width="2" stroke-miterlimit="10"/>
<path d="M428.621 164.235H405.962L405.215 160.81L404.183 160H399V162.118H403.331L404.082 165.543L405.729 172.955L407.126 179.308L408.148 180.118H425.651V178H409.001L408.54 175.882H426.503L427.562 175.056L429.679 165.527L428.621 164.235Z" fill="#F02E5C"/>
<path d="M411.865 187C413.327 187 414.512 185.815 414.512 184.353C414.512 182.891 413.327 181.706 411.865 181.706C410.403 181.706 409.218 182.891 409.218 184.353C409.218 185.815 410.403 187 411.865 187Z" fill="#F02E5C"/>
<path d="M424.571 184.353C424.571 185.815 423.386 187 421.924 187C420.462 187 419.277 185.815 419.277 184.353C419.277 182.891 420.462 181.706 421.924 181.706C423.386 181.706 424.571 182.891 424.571 184.353Z" fill="#F02E5C"/>
<path d="M416.799 231.693C418.511 231.693 419.899 230.305 419.899 228.593C419.899 226.881 418.511 225.493 416.799 225.493C415.087 225.493 413.699 226.881 413.699 228.593C413.699 230.305 415.087 231.693 416.799 231.693Z" fill="white" stroke="#F02E5C" stroke-width="1.5" stroke-miterlimit="10"/>
<path d="M416.799 213.094C418.511 213.094 419.899 211.707 419.899 209.995C419.899 208.283 418.511 206.895 416.799 206.895C415.087 206.895 413.699 208.283 413.699 209.995C413.699 211.707 415.087 213.094 416.799 213.094Z" fill="white" stroke="#F02E5C" stroke-width="1.5" stroke-miterlimit="10"/>
<mask id="mask0_459_1272" style="mask-type:alpha" maskUnits="userSpaceOnUse" x="16" y="271" width="540" height="271">
<path d="M555.463 271.711C555.463 307.13 548.486 342.202 534.931 374.925C521.375 407.647 501.507 437.38 476.46 462.425C451.413 487.47 421.678 507.337 388.953 520.891C356.228 534.445 321.153 541.421 285.731 541.421C250.31 541.421 215.235 534.445 182.51 520.891C149.784 507.337 120.049 487.47 95.0025 462.425C69.9556 437.38 50.0873 407.647 36.5321 374.925C22.9768 342.202 16 307.13 16 271.711L285.731 271.711H555.463Z" fill="#E2F5FA"/>
</mask>
<g mask="url(#mask0_459_1272)">
<path d="M285.577 540.329C433.97 540.329 554.262 420.039 554.262 271.664C554.262 123.29 433.963 3 285.577 3C137.191 3 16.8916 123.282 16.8916 271.664C16.8916 420.047 137.191 540.329 285.577 540.329Z" fill="url(#paint21_linear_459_1272)"/>
<path d="M16.2035 282.928L27.794 287.759L40.8692 304.736L72.0762 310.674L60.6967 332.354L73.7643 376.572L99.583 393.573L107.986 433.074L123.683 461.724L135.621 471.611L152.223 472.153L142.102 466.125L136.774 457.466L138.56 442.795L152.072 428.786L156.021 410.211L174.643 391.319L172.691 371.267L178.464 349.497L166.21 340.183L143.074 338.33L134.912 325.142L123.51 321.126L107.993 303.176H76.0176L72.1591 310.531L50.0406 296.914L34.1319 269.696L40.8767 252.929L56.8005 254.316L72.5661 263.148V241.965L93.9535 218.876L112.485 189.714L140.753 179.752L136.035 152.059L108.016 130.123L88.8214 160.205L70.9232 143.084L75.4222 124.991L93.9535 115.572L112.485 117.915L130.142 130.123L140.753 124.991L132.433 100.327L134.038 85.0377L150.316 78.4893L161.454 90.3277L157.144 120.146L171.598 130.13L190.906 108.42L210.703 100.335L238.669 74.5558L219.498 55.7396L186.663 58.6106L157.144 47.458L128.19 53.7351C60.252 102.49 16 182.148 16 272.145C16 275.762 16.0754 279.364 16.211 282.943L16.2035 282.928Z" fill="url(#paint22_linear_459_1272)"/>
<path fill-rule="evenodd" clip-rule="evenodd" d="M541.099 365.449C550.738 337.778 555.968 308.043 555.968 277.08C555.968 184.792 509.425 103.363 438.533 55L421.644 77.1017L401.124 86.7397L368.002 125.043L328.227 118.562L287.389 144.047V175.471L258.842 184.408L238.246 208.913L233.792 234.926L255.986 244.662L233.792 263.071L223 297.192L242.519 326.159L276.521 331.403L297.547 348.079V369.872L308.701 395.674L305.709 428.74L324.074 460.517L353.932 439.644L380.565 395.681V362.616L407.198 328.932L395.298 319.324L421.644 308.292L436.596 275.791L462.257 290.99L472.385 319.324L486.447 338.313L494.33 319.324L488.354 303.823L491.173 289.137L509.47 278.511L527.127 296.092L525.145 319.324L536.208 338.313L534.151 359.36L540.572 365.027L541.099 365.471V365.449ZM256.068 244.797L280.403 219.35L313.87 222.357L333.08 237.895L357.248 244.805V263.214L338.642 259.951H313.863L293.749 240.193L256.061 244.805L256.068 244.797Z" fill="url(#paint23_linear_459_1272)"/>
<path d="M403.612 370.288L401.344 379.232L393.265 385.992L386.121 399.774L391.992 408.274L403.612 392.224L408.013 377.748L403.612 370.28V370.288Z" fill="#E2F5FA"/>
</g>
<path d="M599.19 148L539 148" stroke="#F87C23" stroke-width="2.5" stroke-linecap="square"/>
<path d="M622.397 148L613.405 148" stroke="#FF6633" stroke-width="2.5" stroke-linecap="square"/>
<path d="M638.584 148L634.987 148" stroke="#FBAD41" stroke-width="2.5" stroke-linecap="square"/>
<path d="M654.771 148L651.174 148" stroke="#FBAD41" stroke-width="2.5" stroke-linecap="square"/>
<path d="M575.19 371L515 371" stroke="#FFE071" stroke-width="2.5" stroke-linecap="square"/>
<path d="M598.397 371L589.405 371" stroke="#FF6633" stroke-width="2.5" stroke-linecap="square"/>
<path d="M614.584 371L610.987 371" stroke="#FBAD41" stroke-width="2.5" stroke-linecap="square"/>
<path d="M630.771 371L627.174 371" stroke="#FBAD41" stroke-width="2.5" stroke-linecap="square"/>
<path d="M608.797 221L574 221" stroke="#F6821F" stroke-width="2.5" stroke-linecap="square"/>
<path d="M629.318 221L615.935 221" stroke="#FF6633" stroke-width="2.5" stroke-linecap="square"/>
<path d="M646.271 221L638.24 221" stroke="#F02E5C" stroke-width="2.5" stroke-linecap="square"/>
<path d="M583 105L512 105" stroke="#FFEF9B" stroke-width="2.5" stroke-linecap="square"/>
<path d="M600.238 105L593.266 105" stroke="#FF6633" stroke-width="2.5" stroke-linecap="square"/>
<path d="M612.787 105L609.998 105" stroke="#FD8D3B" stroke-width="2.5" stroke-linecap="square"/>
<path d="M625.338 105L622.549 105" stroke="#FFCD89" stroke-width="2.5" stroke-linecap="square"/>
<path d="M586.591 292L535 292" stroke="#FBAD41" stroke-width="2.5" stroke-linecap="square"/>
<path d="M608.471 292L595.718 292" stroke="#FF6633" stroke-width="2.5" stroke-linecap="square"/>
<path d="M626.802 292L618.83 292" stroke="#F02E5C" stroke-width="2.5" stroke-linecap="square"/>
<path d="M644.241 292L636.27 292" stroke="#CE2F55" stroke-width="2.5" stroke-linecap="square"/>
<path d="M564.245 61.1221L574.256 61" stroke="#CE2F55" stroke-width="2.5" stroke-linecap="square"/>
<path d="M546.226 61.3418L550.23 61.293" stroke="#F02E5C" stroke-width="2.5" stroke-linecap="square"/>
<path d="M528.207 61.5615L532.211 61.5127" stroke="#F6821F" stroke-width="2.5" stroke-linecap="square"/>
<path d="M475 61.5615L516 61.5615" stroke="#FF6633" stroke-width="2.5" stroke-linecap="square"/>
<path d="M663.383 330.073L673.393 329.951" stroke="#CE2F55" stroke-width="2.5" stroke-linecap="square"/>
<path d="M645.363 330.293L649.368 330.244" stroke="#F02E5C" stroke-width="2.5" stroke-linecap="square"/>
<path d="M627.345 330.512L631.349 330.463" stroke="#F6821F" stroke-width="2.5" stroke-linecap="square"/>
<path d="M509.558 330.513L615.138 330.513" stroke="#FFE071" stroke-width="2.5" stroke-linecap="square"/>
<path d="M458.713 477L406 477" stroke="#FFE071" stroke-width="2.5" stroke-linecap="square"/>
<path d="M499.513 477L507.388 477" stroke="#F6821F" stroke-width="2.5" stroke-linecap="square"/>
<path d="M485.337 477L488.487 477" stroke="#F6821F" stroke-width="2.5" stroke-linecap="square"/>
<path d="M471.161 477L474.311 477" stroke="#F6821F" stroke-width="2.5" stroke-linecap="square"/>
<path d="M596.825 442.122L606.836 442" stroke="#CE2F55" stroke-width="2.5" stroke-linecap="square"/>
<path d="M578.806 442.342L582.81 442.293" stroke="#F02E5C" stroke-width="2.5" stroke-linecap="square"/>
<path d="M560.787 442.562L564.791 442.513" stroke="#F6821F" stroke-width="2.5" stroke-linecap="square"/>
<path d="M443 442.561L548.581 442.561" stroke="#FF6633" stroke-width="2.5" stroke-linecap="square"/>
<path d="M477 407H573.085" stroke="#FFE071" stroke-width="2.5" stroke-linecap="square"/>
<path d="M581.873 407H600.083" stroke="#FF6633" stroke-width="2.5" stroke-linecap="square"/>
<defs>
<linearGradient id="paint0_linear_459_1272" x1="286.5" y1="0" x2="286.5" y2="537" gradientUnits="userSpaceOnUse">
<stop offset="0.0572737" stop-color="#FF6633"/>
<stop offset="0.453023" stop-color="#F6821F"/>
<stop offset="0.453123" stop-color="#F87C23"/>
<stop offset="0.739593" stop-color="#FDCA84"/>
<stop offset="1" stop-color="#FFE9CB"/>
</linearGradient>
<linearGradient id="paint1_linear_459_1272" x1="286.298" y1="36" x2="286.298" y2="500.596" gradientUnits="userSpaceOnUse">
<stop offset="0.0572737" stop-color="#FF6633"/>
<stop offset="0.453023" stop-color="#F6821F"/>
<stop offset="0.453123" stop-color="#F87C23"/>
<stop offset="0.739593" stop-color="#FDCA84"/>
<stop offset="1" stop-color="#FFE9CB"/>
</linearGradient>
<linearGradient id="paint2_linear_459_1272" x1="287" y1="70" x2="287" y2="467" gradientUnits="userSpaceOnUse">
<stop offset="0.0572737" stop-color="#FF6633"/>
<stop offset="0.453023" stop-color="#F6821F"/>
<stop offset="0.453123" stop-color="#F87C23"/>
<stop offset="0.739593" stop-color="#FDCA84"/>
<stop offset="1" stop-color="#FFE9CB"/>
</linearGradient>
<linearGradient id="paint3_linear_459_1272" x1="137.94" y1="211.543" x2="177.984" y2="244.128" gradientUnits="userSpaceOnUse">
<stop offset="0.0469826" stop-color="#281A81"/>
<stop offset="0.604171" stop-color="#CE2F55"/>
<stop offset="1" stop-color="#FF6633"/>
<stop offset="1" stop-color="#FD8D3B"/>
<stop offset="1" stop-color="#FF6633"/>
</linearGradient>
<linearGradient id="paint4_linear_459_1272" x1="240.514" y1="187.886" x2="289.568" y2="215.952" gradientUnits="userSpaceOnUse">
<stop offset="0.180442" stop-color="#281A81"/>
<stop offset="0.688725" stop-color="#CE2F55"/>
<stop offset="1" stop-color="#FF6633"/>
<stop offset="1" stop-color="#FD8D3B"/>
<stop offset="1" stop-color="#FF6633"/>
</linearGradient>
<linearGradient id="paint5_linear_459_1272" x1="378.251" y1="203" x2="378.251" y2="278.845" gradientUnits="userSpaceOnUse">
<stop stop-color="#F6821F"/>
<stop offset="0.5" stop-color="#FBAD41"/>
<stop offset="0.932309" stop-color="#FFE9CB"/>
</linearGradient>
<linearGradient id="paint6_linear_459_1272" x1="251.038" y1="72.3367" x2="314.582" y2="64.9543" gradientUnits="userSpaceOnUse">
<stop offset="0.0469826" stop-color="#281A81"/>
<stop offset="0.541816" stop-color="#CE2F55"/>
<stop offset="1" stop-color="#FF6633"/>
<stop offset="1" stop-color="#FD8D3B"/>
<stop offset="1" stop-color="#FF6633"/>
</linearGradient>
<linearGradient id="paint7_linear_459_1272" x1="97.0919" y1="116.494" x2="160.252" y2="126.651" gradientUnits="userSpaceOnUse">
<stop offset="0.0469826" stop-color="#281A81"/>
<stop offset="0.541816" stop-color="#CE2F55"/>
<stop offset="1" stop-color="#FF6633"/>
<stop offset="1" stop-color="#FD8D3B"/>
<stop offset="1" stop-color="#FF6633"/>
</linearGradient>
<linearGradient id="paint8_linear_459_1272" x1="223.609" y1="105" x2="223.609" y2="271.5" gradientUnits="userSpaceOnUse">
<stop stop-color="#F6821F"/>
<stop offset="0.380203" stop-color="#FBAD41"/>
<stop offset="0.807304" stop-color="#FFE9CB"/>
</linearGradient>
<linearGradient id="paint9_linear_459_1272" x1="499.5" y1="128" x2="499.5" y2="272" gradientUnits="userSpaceOnUse">
<stop stop-color="#F6821F"/>
<stop offset="0.380203" stop-color="#FBAD41"/>
<stop offset="0.807304" stop-color="#FFE9CB"/>
</linearGradient>
<linearGradient id="paint10_linear_459_1272" x1="105.5" y1="177" x2="105.5" y2="266" gradientUnits="userSpaceOnUse">
<stop stop-color="#F6821F"/>
<stop offset="0.380203" stop-color="#FBAD41"/>
<stop offset="0.807304" stop-color="#FFE9CB"/>
</linearGradient>
<linearGradient id="paint11_linear_459_1272" x1="361.011" y1="132.622" x2="361.011" y2="272" gradientUnits="userSpaceOnUse">
<stop stop-color="#F6821F"/>
<stop offset="0.380203" stop-color="#FBAD41"/>
<stop offset="0.807304" stop-color="#FFE9CB"/>
</linearGradient>
<linearGradient id="paint12_linear_459_1272" x1="104.446" y1="223" x2="104.446" y2="274.287" gradientUnits="userSpaceOnUse">
<stop stop-color="#F6821F"/>
<stop offset="0.380203" stop-color="#FBAD41"/>
<stop offset="0.807304" stop-color="#FFE9CB"/>
</linearGradient>
<linearGradient id="paint13_linear_459_1272" x1="306.412" y1="175" x2="306.412" y2="271.25" gradientUnits="userSpaceOnUse">
<stop stop-color="#F6821F"/>
<stop offset="0.380203" stop-color="#FBAD41"/>
<stop offset="0.807304" stop-color="#FFE9CB"/>
</linearGradient>
<linearGradient id="paint14_linear_459_1272" x1="546.658" y1="209.315" x2="546.658" y2="271.468" gradientUnits="userSpaceOnUse">
<stop stop-color="#F6821F"/>
<stop offset="0.380203" stop-color="#FBAD41"/>
<stop offset="0.807304" stop-color="#FFE9CB"/>
</linearGradient>
<linearGradient id="paint15_linear_459_1272" x1="551.717" y1="191.815" x2="541.269" y2="209.218" gradientUnits="userSpaceOnUse">
<stop offset="0.0469826" stop-color="#281A81"/>
<stop offset="0.541816" stop-color="#CE2F55"/>
<stop offset="1" stop-color="#FF6633"/>
<stop offset="1" stop-color="#FD8D3B"/>
<stop offset="1" stop-color="#FF6633"/>
</linearGradient>
<linearGradient id="paint16_linear_459_1272" x1="36.4765" y1="164.373" x2="50.4556" y2="187.903" gradientUnits="userSpaceOnUse">
<stop offset="0.0469826" stop-color="#281A81"/>
<stop offset="0.541816" stop-color="#CE2F55"/>
<stop offset="1" stop-color="#FF6633"/>
<stop offset="1" stop-color="#FD8D3B"/>
<stop offset="1" stop-color="#FF6633"/>
</linearGradient>
<linearGradient id="paint17_linear_459_1272" x1="57.3613" y1="187.903" x2="57.3613" y2="274.356" gradientUnits="userSpaceOnUse">
<stop stop-color="#F6821F"/>
<stop offset="0.380203" stop-color="#FBAD41"/>
<stop offset="0.807304" stop-color="#FFE9CB"/>
</linearGradient>
<linearGradient id="paint18_linear_459_1272" x1="395.801" y1="224.163" x2="395.801" y2="271.127" gradientUnits="userSpaceOnUse">
<stop stop-color="#F6821F"/>
<stop offset="0.380203" stop-color="#FBAD41"/>
<stop offset="0.807304" stop-color="#FFE9CB"/>
</linearGradient>
<linearGradient id="paint19_linear_459_1272" x1="369.073" y1="197.453" x2="384.521" y2="224.893" gradientUnits="userSpaceOnUse">
<stop offset="0.0469826" stop-color="#281A81"/>
<stop offset="0.541816" stop-color="#CE2F55"/>
<stop offset="1" stop-color="#FF6633"/>
<stop offset="1" stop-color="#FD8D3B"/>
<stop offset="1" stop-color="#FF6633"/>
</linearGradient>
<linearGradient id="paint20_linear_459_1272" x1="386.869" y1="137.14" x2="438.57" y2="160.307" gradientUnits="userSpaceOnUse">
<stop offset="0.0469826" stop-color="#281A81"/>
<stop offset="0.541816" stop-color="#CE2F55"/>
<stop offset="1" stop-color="#FF6633"/>
<stop offset="1" stop-color="#FD8D3B"/>
<stop offset="1" stop-color="#FF6633"/>
</linearGradient>
<linearGradient id="paint21_linear_459_1272" x1="285.575" y1="3.00001" x2="285.58" y2="540.329" gradientUnits="userSpaceOnUse">
<stop offset="0.428043" stop-color="#CE2F55"/>
<stop offset="0.547151" stop-color="#FF6633"/>
<stop offset="0.850504" stop-color="#FBAD41"/>
</linearGradient>
<linearGradient id="paint22_linear_459_1272" x1="-36.8306" y1="395.159" x2="153.076" y2="312.175" gradientUnits="userSpaceOnUse">
<stop offset="0.0001" stop-color="#60ADED"/>
<stop offset="0.0396303" stop-color="#60ADED"/>
<stop offset="0.855483" stop-color="white"/>
</linearGradient>
<linearGradient id="paint23_linear_459_1272" x1="144" y1="387" x2="313.947" y2="245.898" gradientUnits="userSpaceOnUse">
<stop stop-color="#60ADED"/>
<stop offset="0.0001" stop-color="#60ADED"/>
<stop offset="0.855483" stop-color="white"/>
</linearGradient>
</defs>
</svg>
